<svg width="600" height="600" viewBox="0 0 600 600" fill="none" xmlns="http://www.w3.org/2000/svg">
<path d="M300 0.100098L565 150V449.9L300 599.8L35 449.9V150L300 0.100098Z" fill="white"/>
<path d="M517.7 439.5L308.8 557.8V465.8L439 394.1L517.7 439.5ZM532 426.6V179.4L455.6 223.5V382.5L532 426.6ZM81.5 439.5L290.4 557.7V465.7L160.2 394.1L81.5 439.5V439.5ZM67.2 426.6V179.4L143.6 223.5V382.5L67.2 426.6V426.6ZM76.1 163.4L290.4 42.2002V131.2L153.1 206.7L152 207.3L76.1 163.4V163.4ZM523 163.4L308.8 42.2002V131.2L446 206.8L447.1 207.4L523 163.4V163.4Z" fill="black"/>
<path d="M290.4 444.8L162 374.1V234.2L290.4 308.3V444.8V444.8ZM308.8 444.8L437.2 374.2V234.2L308.8 308.3V444.8V444.8ZM170.6 218L299.6 147.1L428.5 218L299.6 292.4L170.6 218V218Z" fill="black"/>
</svg>
