<svg width="1930" height="1080" viewBox="0 0 1930 1080" fill="none" xmlns="http://www.w3.org/2000/svg">
<rect width="1930" height="1080" fill="#030303"/>
<path d="M723.064 530.4H727.16V543.2C729.037 538.933 732.237 535.52 736.76 532.96C741.283 530.315 746.275 528.992 751.736 528.992C758.819 528.992 764.408 531.253 768.504 535.776C772.685 540.213 774.776 546.443 774.776 554.464V588H770.68V554.464C770.68 547.552 768.973 542.176 765.56 538.336C762.232 534.496 757.539 532.576 751.48 532.576C747.043 532.576 742.947 533.6 739.192 535.648C735.523 537.611 732.579 540.341 730.36 543.84C728.227 547.339 727.16 551.307 727.16 555.744V588H723.064V530.4ZM818.331 590.048C812.528 590.048 807.28 588.64 802.587 585.824C797.894 582.923 794.224 579.125 791.579 574.432C788.934 569.653 787.611 564.491 787.611 558.944C787.611 553.483 788.934 548.405 791.579 543.712C794.31 539.019 797.979 535.307 802.587 532.576C807.28 529.76 812.486 528.352 818.203 528.352C823.835 528.352 828.955 529.76 833.563 532.576C838.256 535.307 841.926 539.019 844.571 543.712C847.216 548.405 848.539 553.483 848.539 558.944C848.539 564.661 847.259 569.909 844.699 574.688C842.139 579.381 838.555 583.136 833.947 585.952C829.424 588.683 824.219 590.048 818.331 590.048ZM818.331 586.464C823.195 586.464 827.632 585.227 831.643 582.752C835.654 580.277 838.768 576.992 840.987 572.896C843.291 568.715 844.443 564.149 844.443 559.2C844.443 554.336 843.291 549.813 840.987 545.632C838.683 541.451 835.526 538.123 831.515 535.648C827.504 533.173 823.067 531.936 818.203 531.936C813.339 531.936 808.859 533.216 804.763 535.776C800.752 538.251 797.552 541.579 795.163 545.76C792.859 549.941 791.707 554.464 791.707 559.328C791.707 564.192 792.859 568.715 795.163 572.896C797.552 576.992 800.752 580.277 804.763 582.752C808.859 585.227 813.382 586.464 818.331 586.464ZM894.431 517.216C893.236 517.216 892.17 516.789 891.231 515.936C890.378 515.083 889.951 514.016 889.951 512.736C889.951 511.541 890.378 510.517 891.231 509.664C892.17 508.811 893.236 508.384 894.431 508.384C895.626 508.384 896.65 508.811 897.503 509.664C898.442 510.517 898.911 511.541 898.911 512.736C898.911 514.016 898.442 515.083 897.503 515.936C896.65 516.789 895.626 517.216 894.431 517.216ZM892.383 530.4H896.479V588H892.383V530.4ZM915.564 530.4H919.66V539.104C923.585 532.363 929.9 528.992 938.604 528.992C942.785 528.992 946.412 530.187 949.484 532.576C952.556 534.88 954.689 538.379 955.884 543.072C956.993 538.891 959.425 535.52 963.18 532.96C967.02 530.315 971.329 528.992 976.108 528.992C982.337 528.992 987.159 530.827 990.572 534.496C993.985 538.08 995.692 543.2 995.692 549.856V588H991.596V549.856C991.596 544.48 990.188 540.256 987.372 537.184C984.641 534.112 981.015 532.576 976.492 532.576C973.079 532.576 969.921 533.429 967.02 535.136C964.119 536.757 961.815 538.976 960.108 541.792C958.401 544.608 957.548 547.723 957.548 551.136V588H953.452V552.16C953.452 546.016 952.001 541.237 949.1 537.824C946.199 534.325 942.444 532.576 937.836 532.576C934.764 532.576 931.82 533.344 929.004 534.88C926.273 536.416 924.012 538.507 922.22 541.152C920.513 543.712 919.66 546.528 919.66 549.6V588H915.564V530.4ZM1038.95 589.408C1033.49 589.408 1028.41 588.043 1023.72 585.312C1019.02 582.581 1015.31 578.912 1012.58 574.304C1009.85 569.611 1008.49 564.576 1008.49 559.2C1008.49 553.824 1009.85 548.832 1012.58 544.224C1015.31 539.531 1019.02 535.819 1023.72 533.088C1028.41 530.357 1033.49 528.992 1038.95 528.992C1044.5 528.992 1049.74 530.485 1054.69 533.472C1059.64 536.373 1063.1 540.171 1065.06 544.864V530.4H1069.16V588H1065.06V573.664C1062.76 578.443 1059.17 582.283 1054.31 585.184C1049.53 588 1044.41 589.408 1038.95 589.408ZM1039.21 585.824C1043.9 585.824 1048.25 584.629 1052.26 582.24C1056.27 579.765 1059.43 576.523 1061.73 572.512C1064.12 568.416 1065.32 563.979 1065.32 559.2C1065.32 554.507 1064.12 550.112 1061.73 546.016C1059.34 541.92 1056.14 538.677 1052.13 536.288C1048.12 533.813 1043.77 532.576 1039.08 532.576C1034.38 532.576 1029.99 533.813 1025.89 536.288C1021.88 538.763 1018.64 542.048 1016.17 546.144C1013.78 550.24 1012.58 554.635 1012.58 559.328C1012.58 564.021 1013.78 568.416 1016.17 572.512C1018.64 576.523 1021.93 579.765 1026.02 582.24C1030.12 584.629 1034.51 585.824 1039.21 585.824ZM1113.09 614.624C1108.23 614.624 1103.49 613.515 1098.88 611.296C1094.27 609.077 1090.69 606.176 1088.13 602.592V596.704C1090.35 600.8 1093.8 604.213 1098.5 606.944C1103.28 609.675 1108.14 611.04 1113.09 611.04C1121.28 611.04 1127.6 608.608 1132.03 603.744C1136.47 598.965 1138.69 591.925 1138.69 582.624V574.048C1136.39 578.656 1132.76 582.411 1127.81 585.312C1122.95 588.128 1117.83 589.536 1112.45 589.536C1106.99 589.536 1101.91 588.171 1097.22 585.44C1092.52 582.709 1088.81 579.04 1086.08 574.432C1083.35 569.739 1081.99 564.704 1081.99 559.328C1081.99 553.952 1083.35 548.96 1086.08 544.352C1088.81 539.659 1092.52 535.947 1097.22 533.216C1101.91 530.485 1106.99 529.12 1112.45 529.12C1118.08 529.12 1123.29 530.528 1128.07 533.344C1132.84 536.16 1136.39 539.957 1138.69 544.736V530.4H1142.79V582.624C1142.79 593.12 1140.23 601.056 1135.11 606.432C1130.07 611.893 1122.73 614.624 1113.09 614.624ZM1112.71 585.952C1117.4 585.952 1121.75 584.757 1125.76 582.368C1129.77 579.893 1132.93 576.651 1135.23 572.64C1137.62 568.544 1138.82 564.107 1138.82 559.328C1138.82 554.549 1137.62 550.155 1135.23 546.144C1132.93 542.048 1129.77 538.805 1125.76 536.416C1121.75 533.941 1117.4 532.704 1112.71 532.704C1107.93 532.704 1103.49 533.941 1099.39 536.416C1095.38 538.805 1092.14 542.048 1089.67 546.144C1087.28 550.155 1086.08 554.549 1086.08 559.328C1086.08 564.107 1087.28 568.544 1089.67 572.64C1092.14 576.651 1095.38 579.893 1099.39 582.368C1103.49 584.757 1107.93 585.952 1112.71 585.952ZM1186.97 585.952C1191.41 585.952 1195.63 584.8 1199.64 582.496C1203.65 580.192 1206.98 577.035 1209.63 573.024V579.552C1206.47 583.051 1203.01 585.611 1199.26 587.232C1195.5 588.768 1191.24 589.536 1186.46 589.536C1181.17 589.536 1176.18 588.128 1171.48 585.312C1166.88 582.496 1163.16 578.741 1160.35 574.048C1157.62 569.355 1156.25 564.363 1156.25 559.072C1156.25 553.355 1157.62 548.235 1160.35 543.712C1163.08 539.104 1166.79 535.52 1171.48 532.96C1176.26 530.4 1181.55 529.12 1187.36 529.12C1196.23 529.12 1203.78 532.619 1210.01 539.616L1169.82 579.296C1172.64 581.6 1175.37 583.307 1178.01 584.416C1180.66 585.44 1183.64 585.952 1186.97 585.952ZM1160.35 558.688C1160.35 565.771 1162.69 571.829 1167.39 576.864L1204.89 539.616C1202.08 537.141 1199.34 535.392 1196.7 534.368C1194.05 533.259 1190.9 532.704 1187.23 532.704C1182.02 532.704 1177.37 533.856 1173.28 536.16C1169.26 538.379 1166.11 541.451 1163.8 545.376C1161.5 549.301 1160.35 553.739 1160.35 558.688Z" fill="white"/>
</svg>
